<svg xmlns="http://www.w3.org/2000/svg" width="16" height="12"><g opacity=".5"><path fill="#666" d="M1.993 11.42c-1.101 0-1.994-.806-1.994-1.792V2.245C0 1.255.896.453 1.993.453h12.006c1.101 0 1.994.806 1.994 1.792v7.383c0 .99-.897 1.792-1.994 1.792zm3.842-5.568L2.017 9.084a.412.412 0 0 0-.02.623.53.53 0 0 0 .693.021l3.901-3.3 1.089.83a.531.531 0 0 0 .632 0l1.089-.83 3.902 3.3a.53.53 0 0 0 .692-.021.409.409 0 0 0-.02-.623l-3.818-3.232L13.96 2.95a.413.413 0 0 0 .056-.622.532.532 0 0 0-.692-.05L7.996 6.34 2.673 2.273a.528.528 0 0 0-.692.051.41.41 0 0 0 .056.623z"/><path fill="#fff" d="M1.993 11.42c-1.101 0-1.994-.806-1.994-1.792V2.245C0 1.255.896.453 1.993.453h12.006c1.101 0 1.994.806 1.994 1.792v7.383c0 .99-.897 1.792-1.994 1.792zm3.842-5.568L2.017 9.084a.412.412 0 0 0-.02.623.53.53 0 0 0 .693.021l3.901-3.3 1.089.83a.531.531 0 0 0 .632 0l1.089-.83 3.902 3.3a.53.53 0 0 0 .692-.021.409.409 0 0 0-.02-.623l-3.818-3.232L13.96 2.95a.413.413 0 0 0 .056-.622.532.532 0 0 0-.692-.05L7.996 6.34 2.673 2.273a.528.528 0 0 0-.692.051.41.41 0 0 0 .056.623z"/></g></svg>