<svg xmlns="http://www.w3.org/2000/svg" width="12" height="15"><g opacity=".5"><path fill="#00ffd7" d="M12 5.98c0 .387-.037.765-.108 1.134 0 0-.012.067-.04.187a5.72 5.72 0 0 1-.404 1.187c-.604 1.427-1.995 3.803-5.116 6.386a.523.523 0 0 1-.666 0C2.545 12.288 1.154 9.91.553 8.49a5.99 5.99 0 0 1-.524-3.093C.315 2.432 2.798.108 5.786.003 9.196-.117 12 2.603 12 5.98zm-3.087.07A2.91 2.91 0 0 0 6 3.145 2.91 2.91 0 0 0 3.085 6.05a2.91 2.91 0 0 0 2.914 2.905A2.91 2.91 0 0 0 8.913 6.05z"/><path fill="#fff" d="M12 5.98c0 .387-.037.765-.108 1.134 0 0-.012.067-.04.187a5.72 5.72 0 0 1-.404 1.187c-.604 1.427-1.995 3.803-5.116 6.386a.523.523 0 0 1-.666 0C2.545 12.288 1.154 9.91.553 8.49a5.99 5.99 0 0 1-.524-3.093C.315 2.432 2.798.108 5.786.003 9.196-.117 12 2.603 12 5.98zm-3.087.07A2.91 2.91 0 0 0 6 3.145 2.91 2.91 0 0 0 3.085 6.05a2.91 2.91 0 0 0 2.914 2.905A2.91 2.91 0 0 0 8.913 6.05z"/></g></svg>