<svg xmlns="http://www.w3.org/2000/svg" width="13" height="13"><g opacity=".5"><path fill="#666" d="M12.995 10.675c-.37 1.202-1.748 2.074-3.278 2.074a4.16 4.16 0 0 1-.448-.025c-1.86-.245-4.037-1.416-5.828-3.133C1.556 7.939.28 5.944.027 4.253-.23 2.541.607 1.265 2.262.838A1.07 1.07 0 0 1 2.53.805c.969 0 2.124 1.255 2.525 2.156.261.586.241 1.038-.057 1.306-.75.673-1.029 1.083-.997 1.46.037.42.464.907 1.19 1.604a20.092 20.092 0 0 0 .72.66c.81.708 1.338 1.093 1.813 1.093.396 0 .824-.257 1.529-.916.106-.1.303-.22.635-.22.874 0 2.108.783 2.712 1.514.366.442.502.861.394 1.213z"/><path fill="#fff" d="M12.995 10.675c-.37 1.202-1.748 2.074-3.278 2.074a4.16 4.16 0 0 1-.448-.025c-1.86-.245-4.037-1.416-5.828-3.133C1.556 7.939.28 5.944.027 4.253-.23 2.541.607 1.265 2.262.838A1.07 1.07 0 0 1 2.53.805c.969 0 2.124 1.255 2.525 2.156.261.586.241 1.038-.057 1.306-.75.673-1.029 1.083-.997 1.46.037.42.464.907 1.19 1.604a20.092 20.092 0 0 0 .72.66c.81.708 1.338 1.093 1.813 1.093.396 0 .824-.257 1.529-.916.106-.1.303-.22.635-.22.874 0 2.108.783 2.712 1.514.366.442.502.861.394 1.213z"/></g></svg>